<svg fill="currentColor" viewBox="0 0 32 32" xmlns="http://www.w3.org/2000/svg">
	<path
		d="M30.86 12.54c-.17-.5-.64-.86-1.19-.86h-9.54L17.2 2.61a1.25 1.25 0 0 0-1.59-.8h.01c-.37.13-.66.43-.77.8v.01h-.03l-2.94 9.06H2.33a1.25 1.25 0 0 0-.74 2.26l7.72 5.6-2.95 9.07a1.25 1.25 0 0 0 1.93 1.4l7.71-5.6 7.72 5.6a1.25 1.25 0 0 0 1.92-1.4l-2.95-9.06 7.72-5.6a1.25 1.25 0 0 0 .45-1.41zm-10.37 5.52a1.25 1.25 0 0 0-.46 1.4l2.04 6.27-5.34-3.88c-.19-.14-.43-.22-.69-.22H16V7.06l2.04 6.27c.17.5.63.86 1.19.86h6.6z" />
</svg>