<svg viewBox="0 0 24 24" fill="currentColor" xmlns="http://www.w3.org/2000/svg">
	<path
		d="M10.94 8.67a.75.75 0 0 0-1.5 0h1.5Zm4.62 0a.75.75 0 0 0-1.5 0h1.5Zm-6.12 0a.75.75 0 1 0 1.5.02l-1.5-.03Zm1.51-.57a.75.75 0 1 0-1.5-.02l1.5.02Zm-.03.76a.75.75 0 1 0-1.45-.37l1.45.37Zm-.88.44.72.19-.72-.19ZM8.6 10.88l.26.7-.26-.7Zm-1.68-.89a.75.75 0 0 0-.86 1.24l.86-1.24Zm.32.63a.75.75 0 1 0-1.5-.02l1.5.02Zm-.8 5.36h.74-.75Zm.57 1.43-.53.52.53-.52Zm1.42.59v-.75.75Zm2.06.75a.75.75 0 0 0 0-1.5v1.5Zm-4.43-7.53A.75.75 0 1 0 6.93 10l-.86 1.23Zm-.5-3.13-.7-.26-.02.07.73.2Zm.84-2.25.7.27.03-.06-.73-.2ZM7.52 5v-.75V5Zm9.96 0v-.75V5Zm1.1.84-.72.2.02.07.7-.27Zm.84 2.25.72-.19a.75.75 0 0 0-.02-.07l-.7.26ZM18.07 10a.75.75 0 1 0 .86 1.23L18.07 10ZM9.75 18a.75.75 0 1 0 1.5 0h-1.5Zm4 0a.75.75 0 0 0 1.5 0h-1.5Zm-3.25-.75a.75.75 0 0 0 0 1.5v-1.5Zm4 1.5a.75.75 0 0 0 0-1.5v1.5Zm-.44-10.07a.75.75 0 0 0 1.5-.02l-1.5.02Zm1.49-.6a.75.75 0 0 0-1.5.02l1.5-.02Zm-.01.41a.75.75 0 1 0-1.46.37l1.46-.37Zm-.57.8-.73.19.73-.18Zm1.42 1.58-.26.7.26-.7Zm2.54.36a.75.75 0 0 0-.86-1.24l.86 1.24Zm.32-.63a.75.75 0 1 0-1.5.02l1.5-.02Zm-.7 5.38h-.75.75Zm-.58 1.43-.53-.53.53.53Zm-1.42.59v-.75.75Zm-2.05-.75a.75.75 0 0 0 0 1.5v-1.5ZM9.44 8.67a3.06 3.06 0 0 0 3.06 3.06v-1.5c-.86 0-1.56-.7-1.56-1.56h-1.5Zm3.06 3.06a3.06 3.06 0 0 0 3.06-3.06h-1.5c0 .86-.7 1.56-1.56 1.56v1.5ZM10.94 8.7l.01-.59-1.5-.02v.58l1.5.03Zm-1.47-.2-.16.63 1.45.36.16-.62-1.45-.37Zm-.16.62c-.13.49-.49.89-.96 1.06l.52 1.4a3.05 3.05 0 0 0 1.9-2.08L9.3 9.1Zm-.96 1.06c-.48.18-1 .11-1.42-.18l-.86 1.24c.82.56 1.86.7 2.8.35l-.52-1.4Zm-2.6.43-.06 5.37 1.5.01.06-5.36-1.5-.02Zm-.06 5.37c0 .73.28 1.44.8 1.96l1.07-1.05a1.25 1.25 0 0 1-.37-.9l-1.5-.01Zm.8 1.96c.52.53 1.22.82 1.95.82v-1.5c-.33 0-.65-.13-.88-.37l-1.07 1.05Zm1.95.82h2.06v-1.5H8.44v1.5ZM6.93 9.99a1.59 1.59 0 0 1-.63-1.7l-1.45-.4a3.09 3.09 0 0 0 1.22 3.33L6.93 10Zm-.65-1.64.84-2.24-1.4-.53-.84 2.25 1.4.52Zm.86-2.3a.4.4 0 0 1 .38-.3v-1.5c-.85 0-1.6.57-1.83 1.4l1.45.4Zm.38-.3h9.96v-1.5H7.52v1.5Zm9.95 0a.4.4 0 0 1 .4.3l1.44-.4a1.9 1.9 0 0 0-1.83-1.4v1.5Zm.41.36.84 2.24 1.4-.52-.83-2.25-1.4.53Zm.81 2.18c.18.64-.07 1.32-.62 1.7l.86 1.23a3.09 3.09 0 0 0 1.21-3.32l-1.45.39ZM11.25 18v-3h-1.5v3h1.5Zm0-3c0-.14.11-.25.25-.25v-1.5c-.97 0-1.75.78-1.75 1.75h1.5Zm.25-.25h2v-1.5h-2v1.5Zm2 0c.14 0 .25.11.25.25h1.5c0-.97-.78-1.75-1.75-1.75v1.5Zm.25.25v3h1.5v-3h-1.5Zm-3.25 3.75h4v-1.5h-4v1.5Zm5.06-10.09-.01-.58-1.5.02v.58l1.5-.02Zm-1.48.2.16.62 1.45-.37-.15-.62-1.46.37Zm.16.63c.25.96.96 1.74 1.89 2.09l.52-1.41a1.55 1.55 0 0 1-.96-1.06l-1.45.38Zm1.89 2.09c.93.34 1.98.21 2.8-.35l-.86-1.24c-.41.29-.94.36-1.42.18l-.52 1.4Zm1.62-.96.05 5.36 1.5-.01-.05-5.37-1.5.02Zm.05 5.37c0 .33-.12.65-.36.89l1.07 1.05c.51-.52.8-1.23.8-1.96l-1.5.01Zm-.36.89c-.23.24-.55.37-.89.37v1.5c.74 0 1.44-.3 1.96-.82l-1.07-1.05Zm-.89.37H14.5v1.5h2.05v-1.5Z" />
</svg>