<svg fill="currentColor" viewBox="0 0 32 32" xmlns="http://www.w3.org/2000/svg">
	<path
		d="M30.86 12.54c-.17-.5-.64-.86-1.19-.86h-9.54L17.2 2.61a1.3 1.3 0 0 0-2.37 0l-2.95 9.07H2.33a1.25 1.25 0 0 0-.73 2.26l7.71 5.6-2.94 9.07a1.25 1.25 0 0 0 1.93 1.4h-.01l7.71-5.6 7.72 5.6a1.25 1.25 0 0 0 1.92-1.4l-2.95-9.06 7.72-5.6a1.25 1.25 0 0 0 .45-1.41zm-10.37 5.52a1.25 1.25 0 0 0-.46 1.4l2.04 6.27-5.34-3.88a1.24 1.24 0 0 0-1.47 0l-5.33 3.88 2.04-6.27a1.25 1.25 0 0 0-.45-1.4l-5.34-3.88h6.6c.55 0 1.01-.36 1.18-.85v-.01L16 7.05l2.04 6.27c.17.5.63.86 1.19.86h6.6z" />
</svg>